<svg width="80" height="31" viewBox="0 0 80 31" fill="none" xmlns="http://www.w3.org/2000/svg">
<path d="M0.00800001 30L12.608 0.389998H18.572L31.172 30H24.41L21.722 23.406H9.29L6.602 30H0.00800001ZM11.6 17.694H19.412L15.506 8.16L11.6 17.694ZM36.0036 30V0.599998H42.4716V30H36.0036ZM75.271 26.094C72.303 29.034 68.579 30.504 64.099 30.504C59.619 30.504 55.895 29.034 52.927 26.094C49.987 23.154 48.517 19.556 48.517 15.3C48.517 11.072 50.001 7.488 52.969 4.548C55.965 1.58 59.703 0.0959995 64.183 0.0959995C68.663 0.0959995 72.373 1.566 75.313 4.506C78.281 7.446 79.765 11.044 79.765 15.3C79.765 19.528 78.267 23.126 75.271 26.094ZM57.799 21.852C59.479 23.644 61.607 24.54 64.183 24.54C66.759 24.54 68.873 23.658 70.525 21.894C72.177 20.102 73.003 17.904 73.003 15.3C73.003 12.724 72.163 10.54 70.483 8.748C68.803 6.956 66.675 6.06 64.099 6.06C61.523 6.06 59.409 6.956 57.757 8.748C56.105 10.512 55.279 12.696 55.279 15.3C55.279 17.876 56.119 20.06 57.799 21.852Z" fill="#476BF0"/>
</svg>
