<svg width="24" height="24" fill="none" xmlns="http://www.w3.org/2000/svg"><rect width="24" height="24" rx="12" fill="url(#paint0_radial)"/><path d="M11.997 5.441c2.136 0 2.387.01 3.232.048.78.035 1.203.165 1.485.276.375.146.642.318.92.597.28.28.455.546.598.92.108.283.241.705.276 1.486.038.845.048 1.095.048 3.232 0 2.136-.01 2.387-.048 3.232-.035.78-.165 1.203-.276 1.486a2.481 2.481 0 01-.597.92c-.28.28-.546.454-.92.597-.283.108-.706.241-1.486.276-.845.038-1.096.048-3.232.048-2.137 0-2.387-.01-3.232-.048-.78-.035-1.203-.165-1.486-.276a2.481 2.481 0 01-.92-.597 2.444 2.444 0 01-.597-.92c-.108-.283-.241-.705-.276-1.486-.038-.845-.048-1.095-.048-3.232 0-2.137.01-2.387.048-3.232.035-.78.165-1.203.276-1.485.146-.375.317-.642.597-.921.28-.28.546-.454.92-.597.283-.108.705-.241 1.486-.276.845-.041 1.098-.048 3.232-.048zm0-1.441c-2.172 0-2.445.01-3.299.048-.85.038-1.431.174-1.94.371-.526.203-.97.48-1.415.924a3.967 3.967 0 00-.924 1.416c-.197.508-.333 1.089-.371 1.943C4.01 9.552 4 9.825 4 11.997c0 2.171.01 2.444.048 3.298.038.851.174 1.432.371 1.943.203.527.48.971.924 1.416.444.444.892.717 1.416.924.508.197 1.089.333 1.943.371.854.038 1.123.048 3.298.048s2.444-.01 3.298-.048c.851-.038 1.432-.174 1.943-.371.527-.203.972-.48 1.416-.924.445-.445.718-.892.924-1.416.197-.508.333-1.089.371-1.943.038-.854.048-1.124.048-3.298 0-2.175-.01-2.445-.048-3.299-.038-.85-.174-1.431-.371-1.942a3.898 3.898 0 00-.924-1.416 3.966 3.966 0 00-1.416-.924c-.508-.197-1.089-.333-1.943-.372C14.441 4.01 14.168 4 11.997 4z" fill="#fff"/><path d="M11.997 7.895a4.109 4.109 0 10.001 8.217 4.109 4.109 0 000-8.217zm0 6.771a2.666 2.666 0 110-5.333 2.666 2.666 0 010 5.333zM16.267 8.687a.959.959 0 100-1.917.959.959 0 000 1.917z" fill="#fff"/><defs><radialGradient id="paint0_radial" cx="0" cy="0" r="1" gradientUnits="userSpaceOnUse" gradientTransform="rotate(-55.751 26.883 6.355) scale(28.4297)"><stop stop-color="#FEF36B"/><stop offset=".458" stop-color="#EF4D4C"/><stop offset=".724" stop-color="#C3309B"/><stop offset="1" stop-color="#4D5FD0"/></radialGradient></defs></svg>