<svg width="24" height="24" fill="none" xmlns="http://www.w3.org/2000/svg"><rect width="24" height="24" rx="12" fill="#55ACEE"/><path fill-rule="evenodd" clip-rule="evenodd" d="M19.766 7.42a6.058 6.058 0 01-1.74.478 3.039 3.039 0 001.332-1.676c-.585.347-1.234.599-1.924.735a3.03 3.03 0 00-5.162 2.763 8.6 8.6 0 01-6.244-3.165 3.028 3.028 0 00.938 4.044 3.017 3.017 0 01-1.373-.379v.038a3.031 3.031 0 002.43 2.97 3.035 3.035 0 01-1.368.053 3.032 3.032 0 002.83 2.103A6.078 6.078 0 015 16.64 8.575 8.575 0 009.644 18c5.572 0 8.62-4.616 8.62-8.62 0-.13-.004-.261-.01-.391a6.157 6.157 0 001.512-1.568" fill="#fff"/></svg>