<svg width="24" height="24" fill="none" xmlns="http://www.w3.org/2000/svg"><rect width="24" height="24" rx="12" fill="#4C76A4"/><path fill-rule="evenodd" clip-rule="evenodd" d="M11.907 15.966h.844s.255-.027.385-.167c.12-.128.116-.368.116-.368s-.016-1.125.51-1.29c.517-.163 1.182 1.087 1.888 1.568.533.363.938.284.938.284l1.885-.027s.986-.06.519-.83c-.039-.063-.273-.57-1.402-1.611-1.182-1.09-1.024-.914.4-2.8.867-1.147 1.214-1.848 1.106-2.148-.103-.286-.741-.21-.741-.21l-2.123.012s-.158-.02-.274.048c-.114.068-.188.227-.188.227s-.336.888-.784 1.644c-.945 1.594-1.323 1.678-1.477 1.58-.36-.232-.27-.928-.27-1.422 0-1.545.236-2.19-.46-2.356-.23-.056-.4-.092-.99-.098-.758-.008-1.399.002-1.762.179-.241.117-.427.379-.314.394.14.019.458.085.627.313.217.294.21.954.21.954s.124 1.819-.293 2.045c-.286.154-.678-.162-1.52-1.608-.433-.741-.759-1.56-.759-1.56s-.062-.153-.175-.235a.88.88 0 00-.326-.13l-2.017.012s-.303.009-.414.14c-.099.116-.008.356-.008.356s1.58 3.67 3.368 5.52c1.64 1.696 3.501 1.584 3.501 1.584z" fill="#fff"/></svg>