<svg width="24" height="24" fill="none" xmlns="http://www.w3.org/2000/svg"><rect width="24" height="24" rx="12" fill="#F44"/><path fill-rule="evenodd" clip-rule="evenodd" d="M10.641 13.845V9.85l3.841 2.004-3.84 1.99zm8.435-4.688s-.139-.98-.565-1.41c-.54-.567-1.147-.57-1.425-.603C15.096 7 12.112 7 12.112 7h-.006s-2.985 0-4.974.144c-.278.033-.884.036-1.425.602-.426.432-.565 1.411-.565 1.411S5 10.307 5 11.458v1.08c0 1.15.142 2.3.142 2.3s.139.98.565 1.411c.541.567 1.252.549 1.568.608 1.137.11 4.834.143 4.834.143s2.988-.005 4.977-.148c.278-.034.884-.036 1.425-.603.426-.431.565-1.41.565-1.41s.142-1.151.142-2.302v-1.079c0-1.15-.142-2.3-.142-2.3z" fill="#fff"/></svg>