<?xml version="1.0" standalone="no"?>
<!DOCTYPE svg PUBLIC "-//W3C//DTD SVG 20010904//EN"
 "http://www.w3.org/TR/2001/REC-SVG-20010904/DTD/svg10.dtd">
<svg version="1.0" xmlns="http://www.w3.org/2000/svg"
 width="700.000000pt" height="700.000000pt" viewBox="0 0 700.000000 700.000000"
 preserveAspectRatio="xMidYMid meet">
<metadata>
Created by potrace 1.14, written by Peter Selinger 2001-2017
</metadata>
<g transform="translate(0.000000,700.000000) scale(0.100000,-0.100000)"
fill="#000000" stroke="none">
<path d="M3568 5345 c-2 -1 -32 -5 -68 -9 -72 -7 -71 -6 -191 -35 -413 -98
-786 -400 -972 -789 l-43 -89 -39 14 c-44 16 -49 17 -115 34 -75 18 -83 20
-150 30 -148 23 -374 17 -525 -15 -381 -80 -742 -334 -952 -671 -29 -46 -92
-173 -126 -255 -18 -42 -65 -211 -72 -260 -2 -19 -9 -61 -13 -93 -10 -64 -8
-292 2 -372 21 -158 89 -359 172 -512 118 -218 327 -433 545 -563 102 -60 322
-149 404 -163 17 -3 50 -10 75 -15 25 -6 79 -14 120 -18 41 -4 878 -8 1860 -8
1838 -1 1896 0 2065 38 418 96 794 393 989 783 60 119 91 212 128 373 29 131
31 422 4 555 -36 176 -119 393 -192 500 -13 20 -24 38 -24 42 0 11 -131 172
-185 226 -240 242 -550 395 -880 434 -64 8 -262 9 -334 3 -32 -3 -46 0 -52 10
-27 53 -128 213 -161 255 -104 133 -257 268 -408 361 -164 101 -366 171 -575
200 -50 7 -281 14 -287 9z"/>
</g>
</svg>
